<svg width="22" height="22" viewBox="0 0 22 22" fill="none" xmlns="http://www.w3.org/2000/svg">
<path d="M9.16675 10.0833V7.33325L13.7501 10.9999L9.16675 14.6666V11.9166H0.916748V10.0833H9.16675ZM2.25325 13.7499H4.20025C4.84012 15.3257 6.00765 16.6303 7.5031 17.4404C8.99856 18.2505 10.729 18.5158 12.3985 18.1909C14.068 17.8661 15.5727 16.9713 16.6553 15.6596C17.7379 14.3478 18.3311 12.7007 18.3334 10.9999C18.3344 9.29736 17.7429 7.64752 16.6604 6.33337C15.5779 5.01923 14.0719 4.12268 12.4007 3.7975C10.7295 3.47231 8.99721 3.73877 7.50096 4.55115C6.00471 5.36353 4.83776 6.67122 4.20025 8.24992H2.25325C3.42108 4.531 6.89525 1.83325 11.0001 1.83325C16.0628 1.83325 20.1667 5.93717 20.1667 10.9999C20.1667 16.0627 16.0628 20.1666 11.0001 20.1666C6.89525 20.1666 3.42108 17.4688 2.25325 13.7499Z" fill="black"/>
</svg>
