<svg width="34" height="30" viewBox="0 0 34 30" fill="none" xmlns="http://www.w3.org/2000/svg">
<path fill-rule="evenodd" clip-rule="evenodd" d="M15.7549 2.29499C11.9079 -0.0750889 6.93672 0.507127 3.74144 3.70199H3.73994C-0.0672846 7.50953 -0.0672846 13.6824 3.73994 17.49L14.8789 28.629C16.0504 29.8001 17.9494 29.8001 19.1209 28.629L25.4854 22.2645L19.1209 15.9015L18.9049 16.107C16.4918 18.2958 12.7729 18.159 10.5271 15.7988C8.28133 13.4385 8.32941 9.71741 10.6354 7.41599L15.7549 2.29499ZM18.0604 12.72C18.6462 12.1344 19.5957 12.1344 20.1814 12.72V12.7185L27.6064 20.1435L30.7684 16.941C33.5052 13.7478 33.8861 9.15958 31.7133 5.55882C29.5405 1.95806 25.3037 0.156261 21.2029 1.08899L12.7579 9.53699C11.9781 10.2902 11.6653 11.4056 11.9398 12.4545C12.2144 13.5034 13.0335 14.3225 14.0824 14.5971C15.1313 14.8716 16.2467 14.5589 16.9999 13.779L18.0604 12.72Z" fill="#29A341"/>
</svg>
